<svg width="65" height="70" viewBox="0 0 65 70" fill="none" xmlns="http://www.w3.org/2000/svg">
<path d="M50.6855 32.4286C57.4077 32.4286 62.857 25.6169 62.857 17.2143C62.857 8.81169 57.4077 2 50.6855 2C43.9635 2 38.5142 8.81169 38.5142 17.2143C38.5142 25.6169 43.9635 32.4286 50.6855 32.4286Z" stroke="#3FB408" stroke-width="3" stroke-linecap="round" stroke-linejoin="round"/>
<path d="M50.6855 32.4285V67.9285" stroke="#3FB408" stroke-width="3" stroke-linecap="round" stroke-linejoin="round"/>
<path d="M14.6787 2V67.9286" stroke="#3FB408" stroke-width="3" stroke-linecap="round" stroke-linejoin="round"/>
<path d="M27.3571 2V14.6786C27.3571 16.3435 27.0292 17.9922 26.3921 19.5305C25.7549 21.0687 24.821 22.4664 23.6437 23.6437C22.4664 24.821 21.0687 25.7549 19.5305 26.3921C17.9922 27.0292 16.3435 27.3571 14.6786 27.3571C11.316 27.3571 8.09114 26.0214 5.71345 23.6437C3.33576 21.266 2 18.0411 2 14.6786V2" stroke="#3FB408" stroke-width="3" stroke-linecap="round" stroke-linejoin="round"/>
</svg>
