<svg width="47" height="31" viewBox="0 0 47 31" fill="none" xmlns="http://www.w3.org/2000/svg">
<path d="M44.5682 0.588658C44.1112 -0.168077 42.8055 -0.198346 42.2588 0.516011C39.729 3.77905 35.1999 5.81315 30.0262 5.81315H23.4978C14.8476 5.81315 7.82961 11.0195 7.82961 17.4366C7.82961 17.8604 7.8949 18.266 7.95202 18.6776C13.1584 15.911 20.6742 13.5621 31.3318 13.5621C32.05 13.5621 32.6375 13.998 32.6375 14.5307C32.6375 15.0635 32.05 15.4994 31.3318 15.4994C10.8164 15.4994 2.11726 24.8284 0.191387 28.3336C-0.347206 29.3204 0.289313 30.4464 1.61947 30.852C2.9578 31.2636 4.47565 30.7854 5.03056 29.8047C5.15297 29.5867 6.73611 26.9049 10.898 24.3199C13.542 26.9775 18.5688 29.5141 25.1707 28.9934C37.9827 28.3033 47 19.7794 47 9.34256C47 6.30352 46.1187 3.1555 44.5682 0.588658Z" fill="#A1C349"/>
</svg>
