<svg width="306" height="58" viewBox="0 0 306 58" fill="none" xmlns="http://www.w3.org/2000/svg">
<path d="M82.3521 1.08672C81.5077 -0.310286 79.0951 -0.366166 78.0848 0.952606C73.4104 6.97649 65.0417 10.7316 55.4817 10.7316H43.4187C27.4352 10.7316 14.4674 20.343 14.4674 32.1896C14.4674 32.9719 14.588 33.7207 14.6936 34.4807C24.3138 29.3733 38.2014 25.037 57.8943 25.037C59.2213 25.037 60.3069 25.8416 60.3069 26.8251C60.3069 27.8086 59.2213 28.6133 57.8943 28.6133C19.9862 28.6133 3.91224 45.8355 0.353641 52.3065C-0.64156 54.1282 0.534586 56.2069 2.99243 56.9557C5.46535 57.7157 8.27001 56.8328 9.29537 55.0222C9.52155 54.6199 12.4468 49.6689 20.137 44.8968C25.0226 49.803 34.3111 54.4858 46.5098 53.5247C70.1835 52.2506 86.8456 36.5147 86.8456 17.2473C86.8456 11.6369 85.2171 5.82535 82.3521 1.08672Z" fill="#A1C349"/>
<path d="M105.544 52.3911C105.411 52.3911 105.344 52.3244 105.344 52.1911L105.384 47.8311L115.184 29.1111H105.904C105.798 29.1111 105.744 29.0578 105.744 28.9511V24.7511C105.744 24.6178 105.798 24.5511 105.904 24.5511H120.384C120.518 24.5511 120.584 24.6178 120.584 24.7511V29.0711L110.824 47.7111H120.464C120.571 47.7111 120.624 47.7778 120.624 47.9111L120.664 52.1911C120.664 52.3244 120.598 52.3911 120.464 52.3911H105.544ZM124.147 52.3911C124.04 52.3911 123.987 52.3244 123.987 52.1911L124.027 24.7111C124.027 24.6044 124.08 24.5511 124.187 24.5511H137.027C137.134 24.5511 137.187 24.6178 137.187 24.7511V29.2311C137.187 29.3378 137.134 29.3911 137.027 29.3911H128.827V35.6311H137.027C137.134 35.6311 137.187 35.6844 137.187 35.7911L137.227 40.3111C137.227 40.4178 137.174 40.4711 137.067 40.4711H128.827V47.4711H137.067C137.174 47.4711 137.227 47.5378 137.227 47.6711V52.2311C137.227 52.3378 137.174 52.3911 137.067 52.3911H124.147ZM141.744 52.3911C141.637 52.3911 141.584 52.3244 141.584 52.1911L141.664 24.7111C141.664 24.6044 141.717 24.5511 141.824 24.5511H149.904C151.344 24.5511 152.664 24.9111 153.864 25.6311C155.09 26.3244 156.064 27.2711 156.784 28.4711C157.504 29.6444 157.864 30.9778 157.864 32.4711C157.864 33.4578 157.717 34.3511 157.424 35.1511C157.13 35.9244 156.784 36.5911 156.384 37.1511C155.984 37.6844 155.624 38.0844 155.304 38.3511C156.744 39.9511 157.464 41.8311 157.464 43.9911L157.504 52.1911C157.504 52.3244 157.437 52.3911 157.304 52.3911H152.784C152.677 52.3911 152.624 52.3511 152.624 52.2711V43.9911C152.624 43.0311 152.277 42.2044 151.584 41.5111C150.917 40.7911 150.09 40.4311 149.104 40.4311H146.464L146.424 52.1911C146.424 52.3244 146.37 52.3911 146.264 52.3911H141.744ZM146.464 35.6311H149.904C150.73 35.6311 151.464 35.3244 152.104 34.7111C152.744 34.0978 153.064 33.3511 153.064 32.4711C153.064 31.6178 152.744 30.8844 152.104 30.2711C151.49 29.6578 150.757 29.3511 149.904 29.3511H146.464V35.6311ZM168.885 52.7911C167.445 52.7911 166.125 52.4311 164.925 51.7111C163.752 50.9644 162.805 49.9911 162.085 48.7911C161.365 47.5644 161.005 46.2178 161.005 44.7511L161.045 32.0711C161.045 30.6044 161.392 29.2711 162.085 28.0711C162.805 26.8711 163.765 25.9111 164.965 25.1911C166.165 24.4711 167.472 24.1111 168.885 24.1111C170.325 24.1111 171.632 24.4711 172.805 25.1911C173.979 25.9111 174.912 26.8711 175.605 28.0711C176.325 29.2711 176.685 30.6044 176.685 32.0711L176.725 44.7511C176.725 46.2178 176.365 47.5644 175.645 48.7911C174.952 49.9911 174.005 50.9644 172.805 51.7111C171.632 52.4311 170.325 52.7911 168.885 52.7911ZM168.885 47.9511C169.685 47.9511 170.379 47.6311 170.965 46.9911C171.579 46.3244 171.885 45.5778 171.885 44.7511L171.845 32.0711C171.845 31.1911 171.565 30.4444 171.005 29.8311C170.445 29.2178 169.739 28.9111 168.885 28.9111C168.059 28.9111 167.352 29.2178 166.765 29.8311C166.179 30.4178 165.885 31.1644 165.885 32.0711V44.7511C165.885 45.6311 166.179 46.3911 166.765 47.0311C167.352 47.6444 168.059 47.9511 168.885 47.9511ZM183.778 52.3911C183.671 52.3911 183.605 52.3244 183.578 52.1911L178.858 24.7111C178.831 24.6044 178.871 24.5511 178.978 24.5511H183.458C183.565 24.5511 183.631 24.6044 183.658 24.7111L186.218 42.7911L188.858 24.7111C188.885 24.6044 188.965 24.5511 189.098 24.5511H192.698C192.805 24.5511 192.871 24.6044 192.898 24.7111L195.498 42.7911L198.098 24.7111C198.125 24.6044 198.191 24.5511 198.298 24.5511H202.738C202.871 24.5511 202.925 24.6044 202.898 24.7111L198.138 52.1911C198.111 52.2444 198.071 52.2978 198.018 52.3511C197.965 52.3778 197.938 52.3911 197.938 52.3911H193.098C193.018 52.3911 192.951 52.3244 192.898 52.1911L190.858 37.8311L188.818 52.1911C188.791 52.3244 188.725 52.3911 188.618 52.3911H183.778ZM203.014 52.1911L207.974 24.7111C208.001 24.6044 208.068 24.5511 208.174 24.5511H213.974C214.081 24.5511 214.148 24.6044 214.174 24.7111L218.934 52.1911C218.961 52.3244 218.908 52.3911 218.774 52.3911H214.334C214.228 52.3911 214.161 52.3244 214.134 52.1911L213.694 49.2711H208.254L207.814 52.1911C207.788 52.3244 207.721 52.3911 207.614 52.3911H203.174C203.068 52.3911 203.014 52.3244 203.014 52.1911ZM209.054 44.9911H212.894L211.254 33.7511L211.014 32.2711L210.854 33.7511L209.054 44.9911ZM228.263 52.7911C226.823 52.7911 225.503 52.4311 224.303 51.7111C223.13 50.9644 222.183 49.9911 221.463 48.7911C220.77 47.5644 220.423 46.2178 220.423 44.7511V42.9111C220.423 42.7778 220.49 42.7111 220.623 42.7111H225.103C225.21 42.7111 225.263 42.7778 225.263 42.9111V44.7511C225.263 45.6311 225.557 46.3911 226.143 47.0311C226.73 47.6444 227.437 47.9511 228.263 47.9511C229.09 47.9511 229.797 47.6311 230.383 46.9911C230.97 46.3511 231.263 45.6044 231.263 44.7511C231.263 43.7644 230.623 42.9111 229.343 42.1911C228.917 41.9511 228.25 41.5778 227.343 41.0711C226.437 40.5644 225.583 40.0844 224.783 39.6311C223.317 38.7778 222.223 37.7111 221.503 36.4311C220.81 35.1244 220.463 33.6578 220.463 32.0311C220.463 30.5378 220.823 29.2044 221.543 28.0311C222.263 26.8311 223.21 25.8844 224.383 25.1911C225.583 24.4978 226.877 24.1511 228.263 24.1511C229.677 24.1511 230.97 24.5111 232.143 25.2311C233.343 25.9244 234.29 26.8711 234.983 28.0711C235.703 29.2444 236.063 30.5644 236.063 32.0311V35.3111C236.063 35.4178 236.01 35.4711 235.903 35.4711H231.423C231.317 35.4711 231.263 35.4178 231.263 35.3111L231.223 32.0311C231.223 31.0978 230.93 30.3378 230.343 29.7511C229.757 29.1644 229.063 28.8711 228.263 28.8711C227.437 28.8711 226.73 29.1911 226.143 29.8311C225.557 30.4444 225.263 31.1778 225.263 32.0311C225.263 32.9111 225.45 33.6444 225.823 34.2311C226.197 34.8178 226.877 35.3778 227.863 35.9111C227.997 35.9911 228.25 36.1378 228.623 36.3511C229.023 36.5378 229.45 36.7644 229.903 37.0311C230.357 37.2711 230.757 37.4844 231.103 37.6711C231.477 37.8578 231.703 37.9778 231.783 38.0311C233.117 38.7778 234.17 39.6978 234.943 40.7911C235.717 41.8578 236.103 43.1778 236.103 44.7511C236.103 46.2711 235.743 47.6444 235.023 48.8711C234.33 50.0711 233.383 51.0311 232.183 51.7511C231.01 52.4444 229.703 52.7911 228.263 52.7911ZM243.49 52.3911C243.383 52.3911 243.33 52.3244 243.33 52.1911V29.3911H238.13C237.997 29.3911 237.93 29.3244 237.93 29.1911L237.97 24.7111C237.97 24.6044 238.023 24.5511 238.13 24.5511H253.33C253.463 24.5511 253.53 24.6044 253.53 24.7111V29.1911C253.53 29.3244 253.477 29.3911 253.37 29.3911H248.13L248.17 52.1911C248.17 52.3244 248.117 52.3911 248.01 52.3911H243.49ZM256.466 52.3911C256.359 52.3911 256.306 52.3244 256.306 52.1911L256.346 24.7111C256.346 24.6044 256.399 24.5511 256.506 24.5511H269.346C269.452 24.5511 269.506 24.6178 269.506 24.7511V29.2311C269.506 29.3378 269.452 29.3911 269.346 29.3911H261.146V35.6311H269.346C269.452 35.6311 269.506 35.6844 269.506 35.7911L269.546 40.3111C269.546 40.4178 269.492 40.4711 269.386 40.4711H261.146V47.4711H269.386C269.492 47.4711 269.546 47.5378 269.546 47.6711V52.2311C269.546 52.3378 269.492 52.3911 269.386 52.3911H256.466ZM274.223 40.8311C274.089 40.8311 274.023 40.7778 274.023 40.6711V36.3111C274.023 36.2044 274.089 36.1511 274.223 36.1511H281.943C282.076 36.1511 282.143 36.2044 282.143 36.3111V40.6711C282.143 40.7778 282.076 40.8311 281.943 40.8311H274.223ZM299.972 54.9511L297.212 52.1511C296.252 52.5778 295.252 52.7911 294.212 52.7911C292.799 52.7911 291.492 52.4311 290.292 51.7111C289.092 50.9911 288.132 50.0178 287.412 48.7911C286.692 47.5644 286.332 46.2178 286.332 44.7511L286.372 32.0711C286.372 30.6578 286.719 29.3511 287.412 28.1511C288.105 26.9244 289.039 25.9511 290.212 25.2311C291.412 24.4844 292.745 24.1111 294.212 24.1111C295.625 24.1111 296.919 24.4711 298.092 25.1911C299.292 25.8844 300.239 26.8311 300.932 28.0311C301.652 29.2311 302.012 30.5778 302.012 32.0711L302.052 44.7511C302.052 45.5244 301.945 46.2711 301.732 46.9911C301.519 47.7111 301.239 48.3778 300.892 48.9911L303.372 51.5111C303.479 51.6178 303.492 51.7111 303.412 51.7911L300.252 54.9511C300.145 55.0311 300.052 55.0311 299.972 54.9511ZM294.212 47.9511C295.119 47.9511 295.839 47.6178 296.372 46.9511C296.932 46.2578 297.212 45.5244 297.212 44.7511L297.172 32.0711C297.172 31.2178 296.892 30.4844 296.332 29.8711C295.772 29.2311 295.065 28.9111 294.212 28.9111C293.305 28.9111 292.572 29.2311 292.012 29.8711C291.479 30.5111 291.212 31.2444 291.212 32.0711V44.7511C291.212 45.7111 291.519 46.4844 292.132 47.0711C292.772 47.6578 293.465 47.9511 294.212 47.9511Z" fill="black"/>
</svg>
