<svg width="97" height="88" viewBox="0 0 97 88" fill="none" xmlns="http://www.w3.org/2000/svg">
<path id="Vector 1" d="M48.8812 84.2312C48.1522 90.0635 25.8153 82.3178 23.3482 81.2076C19.5335 79.491 2.30198 70.9721 2.01476 66.0894C1.52096 57.6948 13.5345 47.5152 20.6605 44.9239C22.0633 44.4138 16.9009 11.9871 17.133 5.95252C17.5013 -3.62556 46.3891 6.57342 49.2171 11.6638C53.2054 18.8428 50.393 44.4853 50.393 36.2729C50.393 32.2407 52.073 13.1757 57.1962 13.1757C66.2702 13.1757 74.3965 13.9374 80.8814 21.0707C86.6481 27.4141 102.949 40.251 90.4562 47.1916C80.2613 52.8555 73.3946 65.4407 68.5348 75.1603" stroke="#87A330" stroke-width="3" stroke-linecap="round"/>
</svg>
